# xmcd CD database file
#
# Track frame offsets:
#	150
#	13012
#	26540
#	38038
#	53110
#	66051
#	79477
#	93466
#	107186
#	120073
#	132234
#	141650
#	156064
#	168619
#	183072
#	196369
#	211358
#	224791
#
# Disc length: 3179 seconds
#
# Revision: 0
# Processed by: cddbd v1.5.1PL2 Copyright (c) Steve Scherf et al.
# Submitted via: CDex 1.51
#
DISCID=040c6912
DTITLE=Peggy Lee - Vocal Jazz
DYEAR=2001
DGENRE=Jazz
TTITLE0=MañAna (Is Soon Enough For Me)
TTITLE1=Golden Earrings
TTITLE2=I'll Close My Eyes
TTITLE3=I Don't Know Enough About You
TTITLE4=It's A Good Day
TTITLE5=As Long As I'm Dreaming
TTITLE6=Waitin' For The Train To Come In
TTITLE7=What More Can A Woman Do
TTITLE8=He's Just My Kind
TTITLE9=That Old Feeling
TTITLE10=Let There Be Love
TTITLE11=Somebody Else Is Taking My Place
TTITLE12=Caramba It's The Samba
TTITLE13=A Nightingale Can Sing The Blues
TTITLE14=Them There Eyes
TTITLE15=The Way You Look Tonight
TTITLE16=Everything's Movin' Too Fast
TTITLE17=Ain't Goin' No Place
EXTD=YEAR: 2001
EXTT0=
EXTT1=
EXTT2=
EXTT3=
EXTT4=
EXTT5=
EXTT6=
EXTT7=
EXTT8=
EXTT9=
EXTT10=
EXTT11=
EXTT12=
EXTT13=
EXTT14=
EXTT15=
EXTT16=
EXTT17=
PLAYORDER=
